<?xml version="1.0"?>
<svg xmlns="http://www.w3.org/2000/svg" height="512px" viewBox="0 -45 512.05084 512" width="512px" class=""><g><path d="m315.222656 38.792969c1.535156.082031 3.054688.082031 4.570313.234375-.429688-13.222656-2.582031-26.332032-6.398438-39.0000002-4.757812 8.0781252-8.597656 16.6640622-11.445312 25.5976562 6.097656 5.503906 10.613281 10.203125 13.273437 13.167969zm0 0" data-original="#000000" class="active-path" data-old_color="#000000" fill="#85CC68"/><path d="m92.632812 174.070312c-12.777343 5.664063-27.335937 5.757813-40.183593.253907-11.734375-5.398438-20.4375-15.765625-23.71875-28.261719-4.445313-17.363281-1.464844-35.796875 8.230469-50.878906 19.136718-29.355469 57.890624-38.632813 88.246093-21.121094 28.1875 18.242188 38.273438 51.941406 46.371094 79.003906 5.167969 18.613282 13.453125 36.214844 24.511719 52.050782l17.171875-20.78125c-6.183594-8.433594-11.269531-17.617188-15.132813-27.335938-3.699218-9.839844-6.640625-19.949219-8.804687-30.234375-2.371094-13.164063-6.746094-25.882813-12.972657-37.714844-23.160156-37.738281-67.414062-57.007812-110.820312-48.257812-38.28125 7.589843-65.765625 41.3125-65.4726562 80.339843-1.0078128 25.296876 10.9023442 49.371094 31.6250002 63.917969 12.789062 9.191407 29.542968 10.78125 43.832031 4.160157 6.945313-3.445313 12.851563-8.667969 17.117187-15.140626zm0 0" data-original="#000000" class="active-path" data-old_color="#000000" fill="#85CC68"/><path d="m161.804688 417.917969c-3.8125-2.996094-7.449219-6.214844-10.886719-9.636719-2.296875-2.285156-4.390625-4.570312-6.484375-7.078125-14.734375-17.449219-23.574219-39.117187-25.25-61.894531-.074219-.824219-.113282-1.34375-.113282-1.828125-1.050781-24.550781 7.246094-48.589844 23.214844-67.265625l23.589844-28.609375c.183594-.226563.464844-.527344.675781-.738281l17.535157-21.265626c-13.761719-18.355468-23.949219-39.136718-30.023438-61.257812-7.644531-25.507812-16.273438-54.375-38.832031-68.964844-21.855469-12.292968-49.507813-5.359375-62.984375 15.789063-6.796875 10.632812-8.941406 23.585937-5.933594 35.839843 1.832031 7.378907 6.914062 13.53125 13.816406 16.722657 9.410156 3.753906 20.019532 2.964843 28.773438-2.140625 7.125-3.566406 12.117187-10.324219 13.4375-18.183594 0-.21875 0-1.269531.054687-1.5.148438-2.425781-.25-4.851562-1.160156-7.105469-.472656-1.402343-1.421875-2.597656-2.679687-3.382812-1.328126-.652344-2.851563-.792969-4.277344-.402344-2.402344.625-4.636719 1.757813-6.554688 3.328125-4.089844 2.972656-9.808594 2.0625-12.777344-2.023438-2.96875-4.085937-2.0625-9.808593 2.023438-12.777343 3.933594-3.042969 8.460938-5.226563 13.292969-6.398438 5.816406-1.417969 11.953125-.605469 17.199219 2.273438 5.023437 2.847656 8.871093 7.382812 10.863281 12.800781 1.710937 4.453125 2.480469 9.214844 2.265625 13.980469 0 .117187.0625.210937.0625.328125v.6875c.007812.519531-.011719 1.035156-.0625 1.554687v.375c-.148438 6.550781-.925782 13.070313-2.324219 19.472657v.136718l-.042969.285156c-.515625 2.972657-1.222656 5.90625-2.121094 8.785157-6.101562 20.035156-14.0625 39.457031-23.773437 58.011719-5.539063 11.445312-10.769531 22.261718-14.628906 32.339843-12.625 32.882813-14.332031 68.960938-4.863281 102.890625 10.394531 35.832032 42.523437 68.28125 83.796874 61.011719 2.703126-.523437 5.375-1.214844 8-2.066406-.695312-.503907-1.402343-1.015625-2.09375-1.535157zm0 0" data-original="#000000" class="active-path" data-old_color="#000000" fill="#85CC68"/><path d="m441.128906 211.617188c2.757813 4.960937 4.078125 10.589843 3.8125 16.257812-.363281 5.265625-2.007812 10.363281-4.800781 14.847656 1.4375 1.828125 3.136719 3.886719 5.292969 6.328125 2.964844 3.335938 6.308594 7.121094 9.886718 11.8125 5.796876-2.085937 10.730469-3.503906 15.09375-4.765625 12.800782-3.65625 16.238282-4.671875 20.113282-17.835937l6.902344-24.148438-52.652344-15.25zm0 0" data-original="#000000" class="active-path" data-old_color="#000000" fill="#85CC68"/><path d="m411.488281 212.285156h-57.144531c-4.15625 0-7.789062-2.808594-8.839844-6.828125-3.222656-12.394531-10.082031-23.539062-19.695312-32-2.871094-2.511719-3.882813-6.542969-2.535156-10.109375 1.34375-3.570312 4.765624-5.929687 8.582031-5.917968h32.820312c5.113281.109374 10.183594-1.003907 14.777344-3.253907 7.445313-3.855469 12.5-11.148437 13.492187-19.476562 3.886719-25.957031-19.289062-48.878907-26.511718-55.285157-15.15625-14.007812-34.886719-22.023437-55.515625-22.558593-.136719 0-.257813-.070313-.402344-.082031-.621094-.058594-1.234375-.179688-1.828125-.363282-.550781-.109375-1.089844-.261718-1.609375-.46875-.464844-.265625-.90625-.570312-1.316406-.914062-.558594-.351563-1.070313-.761719-1.539063-1.222656-.089844-.101563-.21875-.136719-.308594-.246094-5.683593-6.476563-11.839843-12.527344-18.414062-18.09375-8.398438-7.332032-17.597656-13.683594-27.429688-18.9375 2.585938 10.417968 6.539063 20.445312 11.757813 29.824218 2.578125 4.808594 5.367187 9.5 8.230469 14.125l1.277344 1.929688c3.917968 4.757812 5.742187 10.898438 5.058593 17.023438-1.304687 10.921874-1.683593 21.933593-1.125 32.914062.082031 4.125.171875 8.230469.171875 12.316406 0 2.125-.738281 4.1875-2.09375 5.824219l-51.566406 62.445313-49.734375 60.160156c-.210937.257812-.433594.5-.667969.730468l-22.976562 28.007813c-13.109375 15.265625-19.921875 34.949219-19.054688 55.058594.054688.574219.109375 1.132812.109375 1.753906 1.523438 18.722656 8.878907 36.492187 21.03125 50.816406 1.734375 2.066407 3.480469 3.976563 5.394531 5.894531 2.863282 2.867188 5.894532 5.558594 9.078126 8.066407l.601562.449219c.789062.59375 1.601562 1.214843 2.421875 1.828124 4.382813 3.125 9.019531 5.878907 13.863281 8.226563 3.457032 1.613281 7.007813 3.019531 10.632813 4.214844 2.546875.882812 5.144531 1.605469 7.78125 2.167969 2.742187.59375 5.484375 1.105468 8.226562 1.527343.996094.164063 1.773438.226563 2.550781.300781 1.390626.117188 1.949219.15625 2.480469.238282l3.554688.210937c1.152343.0625 2.3125.054688 3.492187.0625h155.492188c0-15.148437-12.28125-27.429687-27.425782-27.429687h-43.703124c-3.359376 0-6.445313-1.84375-8.042969-4.796875-1.59375-2.953125-1.441407-6.546875.398437-9.355469 26.992188-41.3125 16.128906-96.613281-24.484375-124.644531-3.339843-2.371094-6.855469-4.484375-10.515625-6.328125-5.863281-3.105469-12.070312-5.515625-18.496094-7.183594-3.226562-.757812-5.789062-3.203125-6.699218-6.390625s-.023438-6.617187 2.316406-8.964844c2.339844-2.347656 5.765625-3.246093 8.953125-2.347656 7.65625 1.988281 15.054687 4.851563 22.054687 8.53125h.046876l.082031.046875h.089843c4.402344 2.21875 8.628907 4.761719 12.644532 7.617188 15.730468 10.992187 28.332031 25.886718 36.570312 43.214843 18.6875-27.933593 50.03125-44.761719 83.640625-44.898437h1.460938c3.644531.019531 7.144531-1.417969 9.71875-3.996094 2.386719-2.386719 3.8125-5.5625 4.015625-8.933594.128906-3.554687-1.21875-7.003906-3.722656-9.535156-2.984376-3.152344-7.128907-4.949219-11.472657-4.964844zm-54.855469-118.855468c5.046876 0 9.140626 4.09375 9.140626 9.140624 0 5.050782-4.09375 9.144532-9.140626 9.144532-5.050781 0-9.144531-4.09375-9.144531-9.144532 0-5.046874 4.09375-9.140624 9.144531-9.140624zm0 0" data-original="#000000" class="active-path" data-old_color="#000000" fill="#85CC68"/><path d="m498.847656 176.457031-7.25-2.105469 5.046875-23.167968c1.613281-5.617188 5.40625-10.359375 10.53125-13.164063 4.425781-2.441406 6.035157-8.003906 3.59375-12.425781-2.4375-4.421875-8-6.03125-12.425781-3.59375-9.539062 5.269531-16.542969 14.171875-19.417969 24.6875l-4.929687 22.5625-10.273438-2.972656c-1.664062-.480469-3.382812-.726563-5.113281-.730469-8.117187.015625-15.257813 5.378906-17.527344 13.175781.066407 0 .109375.0625.175781.082032l70.070313 20.289062c2.800781-9.699219-2.785156-19.832031-12.480469-22.636719zm0 0" data-original="#000000" class="active-path" data-old_color="#000000" fill="#85CC68"/></g> </svg>
