<?xml version="1.0"?>
<svg xmlns="http://www.w3.org/2000/svg" height="512px" viewBox="0 -43 512.06235 512" width="512px" class=""><g transform="matrix(0.969135 0 0 0.969135 7.90232 6.57418)"><path d="m492.941406 170.921875-8.5-2.5 3.898438-13.5c1.601562-5.398437 5.199218-10 10.199218-12.699219 2.800782-1.5 4.5-4.402344 4.601563-7.601562.101563-3.199219-1.601563-6.097656-4.300781-7.699219-2.699219-1.601563-6.097656-1.699219-8.800782-.199219-9.097656 5-15.796874 13.300782-18.597656 23.300782l-3.902344 13.5-8.5-2.5c-6.699218-2-14-1.101563-20.097656 2.199218-6.199218 3.398438-10.699218 9.097656-12.699218 15.800782-1.402344 4.699218 1.296874 9.597656 6 10.898437l-7.101563 24.5v.101563c-4.5-6-11.601563-9.5-19-9.5h-55.199219c-3.601562-13.703126-11.101562-26-21.699218-35.300782h31.699218c6.398438.097656 12.699219-1.300781 18.398438-4.101562 9.699218-5 16.300781-14.398438 17.699218-25.199219 3.5-23.601563-11.597656-46.300781-28.398437-61.398437-11.898437-10.800782-26.300781-18.300782-41.898437-22 .398437-17.203126-1.902344-34.300782-6.703126-50.800782-1-3.300781-3.898437-5.699218-7.296874-6.101562-3.402344-.5-6.800782 1.101562-8.601563 4-5.898437 10.199218-10.5 21-13.800781 32.300781-8.597656-7.5-18.097656-14-28.199219-19.398437-3-1.601563-6.699219-1.300782-9.5.699218-2.699219 2.097656-4 5.5-3.300781 8.898438 2.800781 10.902344 6.902344 21.300781 12.402344 31.199218 2.597656 4.902344 5.296874 9.5 8.199218 14.203126 2.597656 4 5.597656 7.199218 4.898438 12.296874-1.5 15-1.898438 30-1.097656 45l-47.703126 57.902344c-7.5-8.902344-13.5-19-17.699218-29.800781-8.800782-21.898437-9.398438-46.199219-21.597656-66.800781-24.402344-39.898438-71-60.199219-116.703126-50.800782-40.796874 8.300782-70.0976558 44.203126-69.9999995 85.902344-1.5976565 50.898438 44.3007815 93.398438 85.4999995 74 12.902344-6.300781 22.601563-17.601562 26.902344-31.199218-8.101562 30.398437-26.902344 60.597656-36.902344 86.699218-12.898437 33.597656-14.597656 70.300782-4.898437 105 11.699219 40.199219 46.898437 72.898438 90.898437 65.097656 8.703126-1.097656 16.902344-4.699218 23.5-10.398437 1.101563.601563 2.203126 1.199219 3.402344 1.800781 3.699219 1.699219 7.5 3.199219 11.398438 4.5 2.699218.898438 5.5 1.699219 8.300781 2.300782 2.800781.597656 5.601563 1.097656 8.601563 1.597656 1.097656.199218 2 .300781 3 .402344.597656.097656 1.296874.097656 1.898437.199218l4.101563.300782c1.296874.097656 2.597656.097656 4 .097656h150.097656c4.902344 0 8.800781-4 8.800781-8.800782 0-19.5-15.800781-35.296874-35.300781-35.296874h-42.199219c14.398437-22.203126 19.199219-49.203126 13.199219-74.902344-.097656-.398438-.199219-.800782-.300782-1.199219 2.703126-7 6.300782-13.601563 10.703126-19.601563 16.5-23 43.199218-36.699218 71.5-36.597656h1.398437c5.800781 0 11.398437-2.300781 15.5-6.402344.398437.902344.898437 1.800782 1.398437 2.601563 3.601563 5.800781 9.800782 11.300781 16.902344 20.699219 2.300782 3.199218 6.5 4.402344 10.199219 3 22.199219-8.398438 32.699219-4.898438 39.300781-27.699219l9.199219-31.800781-19.101563-5.597656 19.101563 5.5c2.199219.699218 4.699219.398437 6.699219-.703126 2-1.097656 3.601562-3 4.199218-5.296874 4-14.300782-4.097656-29-18.097656-33.101563zm0 0" fill="#59474e" data-original="#59474E" class="active-path" data-old_color="#59474e" style="fill:#655159"/><path d="m500.039062 209.820312-9.199218 31.800782c-6.597656 22.800781-17.097656 19.300781-39.300782 27.699218-3.699218 1.402344-7.796874.203126-10.199218-3-7.199219-9.398437-13.300782-14.796874-16.898438-20.699218-.5-.898438-1-1.800782-1.402344-2.597656l2.101563-28.300782 7.101563-24.5zm0 0" fill="#fdd7ad" data-original="#FDD7AD" class="" data-old_color="#fdd7ad" style="fill:#CAAC8A"/><path d="m459.039062 161.121094 33.902344 9.800781c14 4.101563 22.097656 18.800781 18.097656 32.800781-1.398437 4.699219-6.296874 7.398438-10.898437 6l-67.800781-19.601562c-4.699219-1.398438-7.398438-6.300782-6-10.898438 3.902344-14.101562 18.601562-22.199218 32.699218-18.101562zm0 0" fill="#805333" data-original="#805333" class=""/><path d="m475.941406 174.820312c-2.800781 0-5.402344-1.296874-7.101562-3.5-1.699219-2.199218-2.199219-5.097656-1.398438-7.796874l3.898438-13.5c2.800781-9.902344 9.5-18.300782 18.601562-23.300782 4.300782-2.402344 9.597656-.800781 12 3.5 2.398438 4.300782.800782 9.597656-3.5 12-5 2.699219-8.601562 7.300782-10.199218 12.699219l-3.902344 13.5c-1 3.800781-4.5 6.398437-8.398438 6.398437zm0 0" fill="#59474e" data-original="#59474E" class="active-path" data-old_color="#59474e" style="fill:#655159"/><path d="m429.640625 228.621094c-.699219 11.699218-10.398437 20.800781-22.101563 20.699218h-1.398437c-28.300781 0-55 13.601563-71.5 36.601563-4.398437 6-8 12.601563-10.699219 19.601563.097656.398437.199219.796874.300782 1.199218 5.898437 25.699219 1.199218 52.800782-13.203126 74.898438h42.203126c19.5 0 35.296874 15.800781 35.296874 35.300781 0 4.898437-4 8.800781-8.796874 8.800781h-150.203126c-1.296874 0-2.597656 0-4-.101562l-4.097656-.300782c-.601562-.097656-1.300781-.097656-1.902344-.199218-1-.097656-1.898437-.199219-3-.398438-2.898437-.402344-5.699218-1-8.597656-1.601562-2.800781-.597656-5.601562-1.398438-8.300781-2.300782-3.898437-1.296874-7.699219-2.796874-11.398437-4.5-1.101563-.5-2.203126-1.097656-3.402344-1.796874-3.898438-2-7.699219-4.300782-11.300782-6.902344-1.097656-.800782-2.296874-1.699219-3.398437-2.5-3.300781-2.597656-6.5-5.5-9.5-8.5-2-2-3.898437-4.097656-5.699219-6.300782-13-15.398437-20.800781-34.597656-22.300781-54.699218 0-.398438-.101563-.800782-.101563-1.097656-.898437-21.601563 6.300782-42.800782 20.402344-59.300782l22.800782-27.601562.097656-.097656 22.199218-26.703126 25.902344-31.296874 2.097656-2.601563 47.703126-57.699219c-.800782-15-.402344-30.101562 1.097656-45 .699218-5-2.398438-8.300781-4.898438-12.300781-2.902344-4.699219-5.601562-9.398437-8.199218-14.199219-5.402344-9.800781-9.601563-20.300781-12.402344-31.199218-.699219-3.402344.601562-6.800782 3.300781-8.902344 2.699219-2.097656 6.398437-2.300782 9.5-.699219 10.101563 5.398437 19.5 11.898437 28.199219 19.398437 6.699218 5.703126 13 11.902344 18.800781 18.5 5.898437 0 11.800781.703126 17.601563 2 15.597656 3.601563 30.097656 11.203126 41.898437 22 16.898437 15 32 37.800782 28.398437 61.402344-1.398437 10.800782-8 20.199219-17.699218 25.199219-5.699219 2.800781-12 4.300781-18.398438 4.101563h-31.699218c10.597656 9.296874 18.097656 21.597656 21.699218 35.296874h55.199219c6.199219-.097656 12.300781 2.300782 16.699219 6.703126 4.402344 4.398437 6.800781 10.796874 6.800781 17.097656zm0 0" fill="#7f5b53" data-original="#7F5B53" class="" style="fill:#7F5B53"/><path d="m323.941406 305.523438c.097656.398437.199219.796874.300782 1.199218-6.101563-18.101562-17.800782-33.800781-33.5-44.699218-8.5-6-18-10.402344-28.101563-13.101563-3.101563-.800781-5.5-3.101563-6.300781-6.199219-.800782-3 0-6.300781 2.199218-8.601562 2.203126-2.300782 5.5-3.199219 8.5-2.398438 7.5 1.898438 14.703126 4.800782 21.5 8.398438 4.300782 2.101562 8.402344 4.601562 12.300782 7.300781 14.101562 9.898437 25.699218 23 33.699218 38.300781-4.296874 6.300782-7.898437 12.898438-10.597656 19.800782zm0 0" fill="#59474e" data-original="#59474E" class="active-path" data-old_color="#59474e" style="fill:#655159"/><path d="m361.941406 108.121094c0 4.859375-3.941406 8.800781-8.800781 8.800781s-8.800781-3.941406-8.800781-8.800781 3.941406-8.800782 8.800781-8.800782 8.800781 3.941407 8.800781 8.800782zm0 0" fill="#2c2f38" data-original="#2C2F38" class="" data-old_color="#2c2f38" style="fill:#44404F"/><path d="m226.039062 187.222656-2.097656 2.597656-25.902344 31.300782c-15.097656-18-26-39-32-61.699219-7.796874-26-16.898437-55.699219-41.097656-71.398437-24-15.601563-57.699218-5.601563-73 17.796874-12.902344 19.703126-12.699218 52.402344 11.300782 63.601563 20.199218 9.398437 50.398437-3.199219 53.199218-26.601563-.101562 6-.800781 12-2.101562 17.902344-.5 2.597656-1.097656 5.199219-1.898438 7.800782-4.300781 13.699218-14 25-26.902344 31.199218-41.097656 19.398438-87-23-85.4999995-74-.0976563-41.699218 29.2031255-77.601562 69.9999995-85.902344 45.703126-9.398437 92.300782 10.800782 116.601563 50.703126 12.300781 20.699218 12.800781 44.898437 21.601563 66.796874 4.296874 10.902344 10.296874 21 17.796874 29.902344zm0 0" fill="#805333" data-original="#805333" class=""/><path d="m116.339844 143.820312h-.097656c-.5-.097656-.902344-.597656-.902344-1.097656.101562-.601562.101562-1.101562.101562-1.699218 0-.601563.398438-1 1-1 .5 0 1 .398437 1 1 0 .699218 0 1.296874-.101562 2 0 .398437-.5.796874-1 .796874zm0 0" data-original="#000000" class=""/><path d="m116.441406 151.621094c-.402344 0-.800781 0-1.199218-.097656-4.800782-.703126-8.203126-5.101563-7.5-9.902344 0-.199219 0-1.097656 0-1.300782.097656-2.296874-.203126-4.699218-1.101563-6.898437-.5-1.398437-1.398437-2.5-2.601563-3.300781-1.296874-.597656-2.796874-.800782-4.097656-.398438-2.300781.597656-4.5 1.699219-6.300781 3.199219-2.5 2-6 2.398437-8.898437 1.101563-3-1.300782-5-4.101563-5.300782-7.300782-.300781-3.199218 1.199219-6.300781 3.898438-8.101562 3.800781-2.898438 8.199218-5 12.800781-6.199219 5.601563-1.398437 11.5-.601563 16.601563 2.199219 4.796874 2.699218 8.597656 7.101562 10.5 12.402344 1.796874 4.597656 2.597656 9.5 2.199218 14.5 0 .796874 0 1.597656-.101562 2.398437-.800782 4.398437-4.5 7.699219-8.898438 7.699219zm0 0" fill="#2c2f38" data-original="#2C2F38" class="" data-old_color="#2c2f38" style="fill:#44404F"/></g> </svg>
